<svg aria-hidden="true" style="position: absolute; width: 0; height: 0; overflow: hidden;" version="1.1" xmlns="http://www.w3.org/2000/svg" xmlns:xlink="http://www.w3.org/1999/xlink">
  <defs>
  <symbol id="icon-high-voltage" viewBox="0 0 32 32">
<path d="M28 12h-7.2c1.2-3.6 1.84-7.28 1.84-11.040v-0.96h-13.28v0.8c0 6.32-1.84 12.56-5.2 17.84l-0.16 0.16v1.2h10.4c-1.12 3.68-2.8 7.12-4.96 10.32l-0.080 0.16v1.52h0.64c1.68 0 4-0.56 7.040-1.76 6.64-2.56 10.96-9.28 10.96-17.28v-0.96zM16.56 29.040c-2.4 0.88-4.32 1.44-5.68 1.6 2.24-3.44 3.92-7.2 5.12-11.12l0.24-0.88h-10.56c3.2-5.2 4.88-11.2 5.040-17.36h10.64c-0.080 3.84-0.72 7.52-2.080 11.12l-0.32 0.88h7.76c-0.16 7.28-4.080 13.44-10.16 15.76z"></path>
</symbol>
<symbol id="icon-map" viewBox="0 0 32 32">
<path d="M29.44 2.64l-0.64 0.4c-2.4 1.52-5.2 2.24-8 2.24h-0.32l-0.48-0.24c-2.56-1.52-5.52-2.4-8.56-2.4h-0.4c-3.040 0-6 0.8-8.56 2.4l-1.12 0.72v23.6h1.2l0.64-0.4c2.4-1.52 5.2-2.24 8-2.24h0.16c2.8 0 5.6 0.8 8 2.24l0.64 0.4h0.88c3.040 0 6-0.8 8.56-2.4l1.2-0.72v-23.6h-1.2zM10.64 25.36c-2.8 0.080-5.6 0.88-8 2.32v-21.2l0.56-0.32c2.24-1.36 4.8-2.080 7.44-2.16v21.36zM12 25.36v-21.36c2.56 0.080 5.12 0.8 7.36 2.16l0.64 0.4v21.2c-2.4-1.44-5.2-2.32-8-2.4zM29.36 25.52l-0.56 0.32c-2.24 1.36-4.8 2.080-7.44 2.16v-21.36c2.8-0.080 5.6-0.88 8-2.32v21.2z"></path>
</symbol>
<symbol id="icon-arrow" viewBox="0 0 32 32">
<path d="M22.731 10.703c0.331-1.214 0.662-2.097 1.103-2.538l-0.772-0.772c-0.441 0.441-1.324 0.883-2.538 1.103-1.214 0.331-2.648 0.331-3.972 0.221-1.766-0.221-2.317-0.552-2.428-0.662l-0.883 0.772c0.552 0.552 1.545 0.883 3.090 0.993 1.545 0.221 2.979 0.11 4.414-0.221 0 0 0.11 0 0.11 0l-13.462 13.462 0.772 0.772 13.462-13.462c0 0 0 0.11 0 0.11-0.331 1.434-0.441 2.869-0.221 4.414s0.552 2.648 0.993 3.090l0.772-0.772c-0.11-0.11-0.441-0.662-0.662-2.428-0.221-1.434-0.11-2.759 0.221-4.083z"></path>
</symbol>
<symbol id="icon-star" viewBox="0 0 32 32">
<path d="M27.44 12.16c-4.48 0-8.48-3.040-9.6-7.36l-1.040-3.44h-1.6l-0.96 3.44c-1.2 4.32-5.12 7.36-9.6 7.36h-3.28v1.52l2.48 1.76c3.6 2.48 5.2 6.96 3.84 11.2l-1.28 4.080h1.76l1.36-1.12c3.68-3.040 9.040-3.040 12.72 0l1.36 1.12h1.76l-1.28-4.080c-1.28-4.16 0.24-8.72 3.84-11.2l2.48-1.76v-1.52h-2.96zM27.44 14.32c-4.080 2.8-5.84 7.92-4.4 12.64l0.56 1.84-0.4-0.32c-4.16-3.44-10.24-3.44-14.4 0l-0.4 0.32 0.56-1.84c1.44-4.72-0.32-9.84-4.4-12.64l-1.2-0.8h1.2c5.12 0 9.6-3.44 10.96-8.32l0.48-1.84 0.48 1.84c1.36 4.88 5.84 8.32 10.96 8.32h1.2l-1.2 0.8z"></path>
</symbol>
<symbol id="icon-exit" viewBox="0 0 32 32">
<path d="M31.708 25.708c-0-0-0-0-0-0l-9.708-9.708 9.708-9.708c0-0 0-0 0-0 0.105-0.105 0.18-0.227 0.229-0.357 0.133-0.356 0.057-0.771-0.229-1.057l-4.586-4.586c-0.286-0.286-0.702-0.361-1.057-0.229-0.13 0.048-0.252 0.124-0.357 0.228 0 0-0 0-0 0l-9.708 9.708-9.708-9.708c-0-0-0-0-0-0-0.105-0.104-0.227-0.18-0.357-0.228-0.356-0.133-0.771-0.057-1.057 0.229l-4.586 4.586c-0.286 0.286-0.361 0.702-0.229 1.057 0.049 0.13 0.124 0.252 0.229 0.357 0 0 0 0 0 0l9.708 9.708-9.708 9.708c-0 0-0 0-0 0-0.104 0.105-0.18 0.227-0.229 0.357-0.133 0.355-0.057 0.771 0.229 1.057l4.586 4.586c0.286 0.286 0.702 0.361 1.057 0.229 0.13-0.049 0.252-0.124 0.357-0.229 0-0 0-0 0-0l9.708-9.708 9.708 9.708c0 0 0 0 0 0 0.105 0.105 0.227 0.18 0.357 0.229 0.356 0.133 0.771 0.057 1.057-0.229l4.586-4.586c0.286-0.286 0.362-0.702 0.229-1.057-0.049-0.13-0.124-0.252-0.229-0.357z"></path>
</symbol>
<symbol id="icon-exit" viewBox="0 0 32 32">
<path d="M31.708 25.708c-0-0-0-0-0-0l-9.708-9.708 9.708-9.708c0-0 0-0 0-0 0.105-0.105 0.18-0.227 0.229-0.357 0.133-0.356 0.057-0.771-0.229-1.057l-4.586-4.586c-0.286-0.286-0.702-0.361-1.057-0.229-0.13 0.048-0.252 0.124-0.357 0.228 0 0-0 0-0 0l-9.708 9.708-9.708-9.708c-0-0-0-0-0-0-0.105-0.104-0.227-0.18-0.357-0.228-0.356-0.133-0.771-0.057-1.057 0.229l-4.586 4.586c-0.286 0.286-0.361 0.702-0.229 1.057 0.049 0.13 0.124 0.252 0.229 0.357 0 0 0 0 0 0l9.708 9.708-9.708 9.708c-0 0-0 0-0 0-0.104 0.105-0.18 0.227-0.229 0.357-0.133 0.355-0.057 0.771 0.229 1.057l4.586 4.586c0.286 0.286 0.702 0.361 1.057 0.229 0.13-0.049 0.252-0.124 0.357-0.229 0-0 0-0 0-0l9.708-9.708 9.708 9.708c0 0 0 0 0 0 0.105 0.105 0.227 0.18 0.357 0.229 0.356 0.133 0.771 0.057 1.057-0.229l4.586-4.586c0.286-0.286 0.362-0.702 0.229-1.057-0.049-0.13-0.124-0.252-0.229-0.357z"></path>
</symbol>
  </defs>
</svg>
