<svg aria-hidden="true" style="position: absolute; width: 0; height: 0; overflow: hidden;" version="1.1" xmlns="http://www.w3.org/2000/svg" xmlns:xlink="http://www.w3.org/1999/xlink">
  <defs>
  <symbol id="icon-high-voltage-1" viewBox="0 0 32 32">
<path stroke-linejoin="miter" stroke-linecap="butt" stroke-miterlimit="4" stroke-width="1.3333" d="M4.667 19v0.333h10.632c-1.175 4.014-2.958 7.837-5.298 11.333v0.667c1.76 0 4.245-0.726 6.785-1.698 6.725-2.574 10.55-9.434 10.553-16.635l-0.005-0.333h-7.447c1.392-3.737 2.114-7.71 2.114-11.735v-0.265h-12v0.106c0 6.46-1.851 12.786-5.333 18.227z"></path>
</symbol>
<symbol id="icon-map-1" viewBox="0 0 33 32">
<path stroke-linejoin="miter" stroke-linecap="butt" stroke-miterlimit="4" stroke-width="1.3333" d="M21.167 28.667v-22.667M21.167 28.667h-0.445l-0.477-0.294c-2.522-1.552-5.424-2.373-8.385-2.373h-0.027M21.167 28.667h0.235c2.9 0 5.745-0.788 8.232-2.28l0.867-0.52v-22.533l-0.333 0-0.477 0.293c-2.522 1.552-5.424 2.373-8.385 2.373h-0.472l-0.645-0.387c-2.487-1.492-5.332-2.28-8.232-2.28h-0.123M11.833 26l0-22.667M11.833 26h-0.138M11.834 3.333h-0.235c-2.9 0-5.745 0.788-8.232 2.28l-0.867 0.52v22.533h0.333l0.477-0.294c2.522-1.552 5.424-2.373 8.385-2.373M11.695 26h-0.195"></path>
</symbol>
<symbol id="icon-star-1" viewBox="0 0 32 32">
<path stroke-linejoin="miter" stroke-linecap="butt" stroke-miterlimit="4" stroke-width="1.3333" d="M15.682 2h0.636l0.826 2.99c1.277 4.625 5.484 7.828 10.282 7.828h2.574v0.515l-2.209 1.524c-3.835 2.647-5.508 7.476-4.132 11.928l0.993 3.214h-0.652l-1.206-0.996c-3.943-3.258-9.645-3.258-13.588 0l-1.206 0.996h-0.652l0.993-3.214c1.376-4.452-0.297-9.281-4.132-11.928l-2.208-1.524v-0.515h2.574c4.798 0 9.005-3.203 10.282-7.828l0.826-2.99z"></path>
</symbol>
  </defs>
</svg>
