<svg aria-hidden="true" style="position: absolute; width: 0; height: 0; overflow: hidden;" version="1.1" xmlns="http://www.w3.org/2000/svg" xmlns:xlink="http://www.w3.org/1999/xlink">
  <defs>
  <symbol id="icon-instagram" viewBox="0 0 30 32">
<path d="M15.158 21.053c2.021 0 3.705-1.684 3.705-3.705 0-2.189-1.684-3.874-3.705-3.874s-3.705 1.684-3.705 3.705c-0.168 2.189 1.684 3.874 3.705 3.874zM15.158 14.653c1.347 0 2.526 1.179 2.526 2.526s-1.179 2.526-2.526 2.526-2.526-1.179-2.526-2.526 1.179-2.526 2.526-2.526z"></path>
<path d="M29.979 14.147c0 0 0 0 0 0v-4.716c0-4.547-3.705-8.253-8.253-8.253h-13.137c-0.505 0-1.011 0-1.347 0.168 0 0 0 0 0 0s0 0 0 0c-3.874 0.674-6.737 4.042-6.737 8.084v13.305c0 4.547 3.705 8.253 8.253 8.253h13.305c4.547 0 8.253-3.705 8.253-8.253l-0.337-8.589c0 0 0 0 0 0zM6.4 2.695v4.042c0 0.337 0.337 0.674 0.674 0.674s0.674-0.337 0.674-0.674v-4.211c0.337 0 0.505 0 0.842 0h1.347v4.547c0 0.337 0.337 0.674 0.674 0.674s0.674-0.337 0.674-0.674v-4.716h2.021v4.547c0 0.337 0.337 0.674 0.674 0.674s0.674-0.337 0.674-0.674v-4.547h7.411c3.874 0 6.905 3.2 6.905 6.905v4.211h-7.242c-1.516-2.189-3.874-3.705-6.568-3.705s-5.053 1.516-6.4 3.705h-7.242v-4.042c0-3.2 2.189-5.726 4.884-6.737zM15.158 11.116c3.368 0 6.232 2.695 6.232 6.232 0 3.368-2.695 6.232-6.232 6.232-3.368 0-6.232-2.695-6.232-6.232s2.863-6.232 6.232-6.232zM21.726 29.642h-13.137c-3.874 0-6.905-3.2-6.905-6.905v-7.916h6.568c-0.337 0.842-0.505 1.516-0.505 2.526 0 4.042 3.368 7.411 7.411 7.411s7.411-3.368 7.411-7.411c0-0.842-0.168-1.684-0.505-2.526h6.568v7.916c0.168 3.705-3.032 6.905-6.905 6.905z"></path>
<path d="M23.074 9.937h0.674c1.011 0 1.853-0.842 1.853-1.853v-0.674c0-1.011-0.842-1.853-1.853-1.853h-0.674c-1.011 0-1.853 0.842-1.853 1.853v0.674c0 1.011 0.842 1.853 1.853 1.853zM22.4 7.411c0-0.337 0.337-0.674 0.674-0.674h0.674c0.337 0 0.674 0.337 0.674 0.674v0.674c0 0.337-0.337 0.674-0.674 0.674h-0.674c-0.337 0-0.674-0.337-0.674-0.674v-0.674z"></path>
</symbol>
<symbol id="icon-linkedin" viewBox="0 0 30 32">
<path d="M7.242 11.284h-6.232c-0.337 0-0.674 0.168-0.674 0.505v17.516c0 0.337 0.337 0.674 0.674 0.674h6.063c0.337 0 0.674-0.337 0.674-0.674v-17.516c0-0.337-0.168-0.505-0.505-0.505zM6.568 28.8h-4.884v-16.337h4.884v16.337z"></path>
<path d="M22.568 11.116c-1.684 0-3.368 0.505-4.716 1.347v-0.674c0-0.337-0.337-0.674-0.674-0.674h-6.4c-0.337 0.168-0.674 0.337-0.674 0.674v17.516c0 0.337 0.337 0.674 0.674 0.674h6.4c0.337 0 0.674-0.337 0.674-0.674v-9.095c0-0.505 0.168-1.011 0.674-1.516 0.337-0.337 0.842-0.674 1.516-0.674 0 0 0 0 0.168 0s0.505 0 0.674 0.168c0.337 0.168 0.505 0.337 0.674 0.505s0.337 0.337 0.505 0.674c0.168 0.337 0.168 0.505 0.168 0.842v9.095c0 0.337 0.337 0.674 0.674 0.674h6.737c0.337 0 0.674-0.337 0.674-0.674v-8.926c-0.337-5.726-3.2-9.263-7.747-9.263zM28.8 28.8h-5.558v-8.589c0-0.505 0-0.842-0.168-1.347-0.168-0.337-0.337-0.842-0.674-1.011-0.337-0.337-0.674-0.505-1.011-0.674-0.505-0.168-1.011-0.337-1.347-0.168-0.842 0-1.684 0.337-2.189 1.011-0.842 0.505-1.347 1.347-1.347 2.189v8.589h-5.053v-16.337h5.221v1.347c0 0.168 0.168 0.505 0.337 0.505 0.168 0.168 0.505 0 0.674-0.168 1.347-1.179 3.2-1.853 5.053-1.853 3.874 0 6.232 3.032 6.232 7.916v8.589z"></path>
<path d="M6.737 3.032c-0.674-0.674-1.684-1.011-2.695-1.011-0.674 0-1.347 0.168-2.021 0.505s-1.179 1.011-1.347 1.684c-0.337 0.842-0.337 1.516-0.337 2.189 0.168 0.842 0.505 1.516 1.179 2.021s1.179 0.842 1.853 1.011c0.168 0 0.505 0 0.674 0 0.505 0 1.011-0.168 1.516-0.337 0.674-0.337 1.347-0.842 1.684-1.347 0.337-0.674 0.674-1.347 0.674-2.021 0 0 0-0.168 0-0.168 0-1.011-0.505-1.853-1.179-2.526zM6.232 7.074c-0.337 0.505-0.674 0.842-1.179 1.011s-1.011 0.168-1.347 0.168c-0.505-0.168-1.011-0.337-1.347-0.674s-0.674-0.842-0.674-1.347 0-1.011 0.168-1.516c0.168-0.505 0.505-0.842 1.011-1.179 0.337-0.168 0.674-0.337 1.179-0.337 0.674 0 1.347 0.337 1.853 0.674 0.505 0.505 0.674 1.179 0.674 1.853 0 0 0 0.168 0 0.168 0 0.505-0.168 0.842-0.337 1.179z"></path>
</symbol>
<symbol id="icon-play" viewBox="0 0 32 32">
<path fill="#fff" style="fill: var(--color2, #fff)" d="M13.378 23.040c-0.335 0-0.67-0.084-1.005-0.251s-0.67-0.503-0.838-0.838c-0.168-0.335-0.335-0.754-0.335-1.173v-9.717c0-0.419 0.084-0.754 0.335-1.173 0.168-0.335 0.503-0.586 0.838-0.838 0.335-0.168 0.754-0.251 1.173-0.251 0.335 0.084 0.754 0.168 1.089 0.419l6.869 4.858c0.251 0.168 0.503 0.503 0.67 0.754 0.168 0.335 0.251 0.67 0.251 1.005s-0.084 0.67-0.251 1.005c-0.168 0.335-0.419 0.586-0.67 0.754l-6.869 5.026c-0.335 0.251-0.67 0.335-1.089 0.419-0.084 0-0.168 0-0.168 0zM13.378 9.47c-0.251 0-0.503 0.084-0.67 0.168-0.251 0.084-0.503 0.335-0.67 0.586s-0.251 0.503-0.251 0.838v9.8c0 0.251 0.084 0.586 0.251 0.838s0.335 0.419 0.586 0.586c0.251 0.168 0.503 0.168 0.838 0.168 0.251 0 0.503-0.084 0.754-0.251l6.869-4.858c0.168-0.168 0.335-0.335 0.503-0.586 0.084-0.251 0.168-0.503 0.168-0.754s-0.084-0.503-0.168-0.754c-0.084-0.251-0.251-0.419-0.503-0.586l-6.869-4.942c-0.168-0.168-0.503-0.251-0.754-0.251h-0.084z"></path>
<path fill="#fff" style="fill: var(--color2, #fff)" d="M16 31.2c-8.395 0-15.2-6.805-15.2-15.2s6.805-15.2 15.2-15.2c8.395 0 15.2 6.805 15.2 15.2s-6.805 15.2-15.2 15.2zM16 32c8.837 0 16-7.163 16-16s-7.163-16-16-16c-8.837 0-16 7.163-16 16s7.163 16 16 16z"></path>
</symbol>
<symbol id="icon-spotify" viewBox="0 0 30 32">
<path d="M15.158 1.179c-8.253 0-14.821 6.737-14.821 14.821s6.737 14.821 14.821 14.821 14.821-6.737 14.821-14.821-6.568-14.821-14.821-14.821zM15.158 29.642c-7.411 0-13.642-6.063-13.642-13.642 0-7.411 6.063-13.642 13.642-13.642 7.411 0 13.642 6.063 13.642 13.642 0 7.411-6.232 13.642-13.642 13.642z"></path>
<path d="M23.916 9.432c-0.337-0.337-0.505-0.505-0.842-0.674-2.021-0.842-4.211-1.516-6.4-1.853-2.358-0.168-4.547-0.337-6.568 0-0.842 0-1.347 0.337-1.853 1.011-0.505 0.505-0.674 1.179-0.505 1.853 0 0.337 0.168 0.674 0.337 1.011 0 0.337 0.337 0.505 0.505 0.674 0.337 0.337 0.505 0.337 0.842 0.505s0.674 0.168 1.011 0c1.853-0.168 3.537-0.168 5.389 0.168 1.853 0.168 3.705 0.674 5.389 1.516 0.337 0.168 0.674 0.168 1.011 0.168s0.505 0 0.842-0.168 1.011-0.674 1.347-1.179c0.168-0.337 0.337-0.674 0.337-1.011s0-0.674-0.168-1.179c-0.168-0.337-0.337-0.674-0.674-0.842zM23.242 11.958c-0.168 0.337-0.337 0.505-0.674 0.505-0.337 0.168-0.505 0-0.842 0-1.853-0.842-3.705-1.347-5.726-1.516-1.011-0.337-2.021-0.337-3.032-0.337-0.842 0-1.684 0-2.695 0.168-0.168 0-0.337 0-0.505 0s-0.337-0.168-0.337-0.337c-0.168 0-0.337-0.168-0.337-0.337s-0.168-0.337-0.168-0.505v0c0-0.337 0-0.674 0.337-1.011 0.168-0.168 0.505-0.337 0.842-0.505 2.021-0.168 4.042-0.168 6.232 0.168s4.211 0.842 6.232 1.684c0.168 0 0.337 0.168 0.505 0.337s0.168 0.337 0.337 0.505c0 0.168 0.168 0.337 0.168 0.505-0.168 0.337-0.168 0.505-0.337 0.674z"></path>
<path d="M21.053 15.158c-1.853-0.674-3.705-1.179-5.558-1.516-1.684-0.337-3.368-0.337-5.221-0.168-0.505 0-1.179 0.337-1.516 0.842s-0.674 1.011-0.674 1.684c0 0.337 0 0.674 0.168 0.842 0.168 0.337 0.337 0.505 0.505 0.842 0.168 0.168 0.505 0.337 0.842 0.505s0.674 0.168 0.842 0.168c1.347-0.168 2.863 0 4.211 0.168 1.516 0.168 3.032 0.674 4.547 1.179 0.337 0.168 0.505 0.168 0.842 0.168 0 0 0 0 0.168 0 0.337 0 0.674-0.168 1.011-0.168 0.337-0.168 0.505-0.337 0.842-0.674 0.168-0.337 0.337-0.505 0.505-0.842 0.168-0.505 0-1.179-0.168-1.684-0.337-0.842-0.842-1.179-1.347-1.347zM21.221 17.516c0 0.168-0.168 0.337-0.168 0.337s-0.168 0.168-0.337 0.337c-0.168 0-0.337 0.168-0.505 0.168s-0.337 0-0.505 0c-1.516-0.674-3.2-1.011-4.716-1.347-0.842-0.168-1.853-0.168-2.863-0.168-0.505 0-1.179 0-1.684 0-0.168 0-0.337 0-0.337 0-0.168 0-0.337-0.168-0.337-0.168-0.168-0.168-0.168-0.168-0.337-0.337 0-0.168-0.168-0.337-0.168-0.337s0 0 0 0c0-0.337 0.168-0.505 0.337-0.842 0.337-0.337 0.505-0.505 0.842-0.505 1.684-0.168 3.368-0.168 4.884 0.168 1.853 0.168 3.537 0.674 5.221 1.347 0.168 0.168 0.505 0.337 0.505 0.505 0.337 0.337 0.337 0.674 0.168 0.842z"></path>
<path d="M19.032 21.221c-0.168-0.168-0.505-0.337-0.842-0.505-1.179-0.337-2.358-0.674-3.537-0.842-0.842-0.168-1.684-0.168-2.526-0.168-0.337 0-0.674 0-1.011 0.168s-0.505 0.337-0.842 0.505c-0.168 0.168-0.337 0.505-0.505 0.842s-0.168 0.674-0.168 1.011c0 0.505 0.337 1.011 0.674 1.516s1.011 0.674 1.516 0.674c0.674 0 1.347 0 2.021 0.168 1.011 0.168 2.021 0.337 2.863 0.674 0.168 0 0.505 0.168 0.674 0.168 0.337 0 0.674 0 0.842-0.168 0.505-0.168 0.842-0.505 1.011-1.011 0 0 0 0 0-0.168 0.168-0.337 0.168-0.674 0.168-1.011s0-0.674-0.168-1.011c0.337-0.337 0.168-0.505-0.168-0.842zM18.526 23.411c0 0 0 0 0 0-0.168 0.337-0.337 0.505-0.505 0.505-0.168 0.168-0.505 0.168-0.674 0-1.179-0.337-2.189-0.505-3.2-0.674-0.674-0.168-1.516-0.168-2.189-0.168-0.168 0-0.505-0.168-0.674-0.337s-0.337-0.337-0.337-0.674c0-0.168 0-0.337 0-0.505s0.168-0.337 0.168-0.337 0.168-0.168 0.337-0.168 0.337-0.168 0.337-0.168c0 0 0 0 0 0 0.842 0 1.684 0.168 2.526 0.168 1.179 0.168 2.358 0.337 3.368 0.842 0.168 0 0.337 0.168 0.337 0.168 0.168 0.168 0.168 0.168 0.168 0.337s0.168 0.337 0 0.505c0.337 0.168 0.337 0.337 0.337 0.505z"></path>
</symbol>
  <symbol id="icon-high-voltage" viewBox="0 0 32 32">
<path d="M28 12h-7.2c1.2-3.6 1.84-7.28 1.84-11.040v-0.96h-13.28v0.8c0 6.32-1.84 12.56-5.2 17.84l-0.16 0.16v1.2h10.4c-1.12 3.68-2.8 7.12-4.96 10.32l-0.080 0.16v1.52h0.64c1.68 0 4-0.56 7.040-1.76 6.64-2.56 10.96-9.28 10.96-17.28v-0.96zM16.56 29.040c-2.4 0.88-4.32 1.44-5.68 1.6 2.24-3.44 3.92-7.2 5.12-11.12l0.24-0.88h-10.56c3.2-5.2 4.88-11.2 5.040-17.36h10.64c-0.080 3.84-0.72 7.52-2.080 11.12l-0.32 0.88h7.76c-0.16 7.28-4.080 13.44-10.16 15.76z"></path>
</symbol>
<symbol id="icon-map" viewBox="0 0 32 32">
<path d="M29.44 2.64l-0.64 0.4c-2.4 1.52-5.2 2.24-8 2.24h-0.32l-0.48-0.24c-2.56-1.52-5.52-2.4-8.56-2.4h-0.4c-3.040 0-6 0.8-8.56 2.4l-1.12 0.72v23.6h1.2l0.64-0.4c2.4-1.52 5.2-2.24 8-2.24h0.16c2.8 0 5.6 0.8 8 2.24l0.64 0.4h0.88c3.040 0 6-0.8 8.56-2.4l1.2-0.72v-23.6h-1.2zM10.64 25.36c-2.8 0.080-5.6 0.88-8 2.32v-21.2l0.56-0.32c2.24-1.36 4.8-2.080 7.44-2.16v21.36zM12 25.36v-21.36c2.56 0.080 5.12 0.8 7.36 2.16l0.64 0.4v21.2c-2.4-1.44-5.2-2.32-8-2.4zM29.36 25.52l-0.56 0.32c-2.24 1.36-4.8 2.080-7.44 2.16v-21.36c2.8-0.080 5.6-0.88 8-2.32v21.2z"></path>
</symbol>
<symbol id="icon-arrow" viewBox="0 0 32 32">
<path d="M22.731 10.703c0.331-1.214 0.662-2.097 1.103-2.538l-0.772-0.772c-0.441 0.441-1.324 0.883-2.538 1.103-1.214 0.331-2.648 0.331-3.972 0.221-1.766-0.221-2.317-0.552-2.428-0.662l-0.883 0.772c0.552 0.552 1.545 0.883 3.090 0.993 1.545 0.221 2.979 0.11 4.414-0.221 0 0 0.11 0 0.11 0l-13.462 13.462 0.772 0.772 13.462-13.462c0 0 0 0.11 0 0.11-0.331 1.434-0.441 2.869-0.221 4.414s0.552 2.648 0.993 3.090l0.772-0.772c-0.11-0.11-0.441-0.662-0.662-2.428-0.221-1.434-0.11-2.759 0.221-4.083z"></path>
</symbol>
<symbol id="icon-star" viewBox="0 0 32 32">
<path d="M27.44 12.16c-4.48 0-8.48-3.040-9.6-7.36l-1.040-3.44h-1.6l-0.96 3.44c-1.2 4.32-5.12 7.36-9.6 7.36h-3.28v1.52l2.48 1.76c3.6 2.48 5.2 6.96 3.84 11.2l-1.28 4.080h1.76l1.36-1.12c3.68-3.040 9.040-3.040 12.72 0l1.36 1.12h1.76l-1.28-4.080c-1.28-4.16 0.24-8.72 3.84-11.2l2.48-1.76v-1.52h-2.96zM27.44 14.32c-4.080 2.8-5.84 7.92-4.4 12.64l0.56 1.84-0.4-0.32c-4.16-3.44-10.24-3.44-14.4 0l-0.4 0.32 0.56-1.84c1.44-4.72-0.32-9.84-4.4-12.64l-1.2-0.8h1.2c5.12 0 9.6-3.44 10.96-8.32l0.48-1.84 0.48 1.84c1.36 4.88 5.84 8.32 10.96 8.32h1.2l-1.2 0.8z"></path>
</symbol>
<symbol id="icon-exit" viewBox="0 0 32 32">
<path d="M31.708 25.708c-0-0-0-0-0-0l-9.708-9.708 9.708-9.708c0-0 0-0 0-0 0.105-0.105 0.18-0.227 0.229-0.357 0.133-0.356 0.057-0.771-0.229-1.057l-4.586-4.586c-0.286-0.286-0.702-0.361-1.057-0.229-0.13 0.048-0.252 0.124-0.357 0.228 0 0-0 0-0 0l-9.708 9.708-9.708-9.708c-0-0-0-0-0-0-0.105-0.104-0.227-0.18-0.357-0.228-0.356-0.133-0.771-0.057-1.057 0.229l-4.586 4.586c-0.286 0.286-0.361 0.702-0.229 1.057 0.049 0.13 0.124 0.252 0.229 0.357 0 0 0 0 0 0l9.708 9.708-9.708 9.708c-0 0-0 0-0 0-0.104 0.105-0.18 0.227-0.229 0.357-0.133 0.355-0.057 0.771 0.229 1.057l4.586 4.586c0.286 0.286 0.702 0.361 1.057 0.229 0.13-0.049 0.252-0.124 0.357-0.229 0-0 0-0 0-0l9.708-9.708 9.708 9.708c0 0 0 0 0 0 0.105 0.105 0.227 0.18 0.357 0.229 0.356 0.133 0.771 0.057 1.057-0.229l4.586-4.586c0.286-0.286 0.362-0.702 0.229-1.057-0.049-0.13-0.124-0.252-0.229-0.357z"></path>
</symbol>
<symbol id="icon-exit" viewBox="0 0 32 32">
<path d="M31.708 25.708c-0-0-0-0-0-0l-9.708-9.708 9.708-9.708c0-0 0-0 0-0 0.105-0.105 0.18-0.227 0.229-0.357 0.133-0.356 0.057-0.771-0.229-1.057l-4.586-4.586c-0.286-0.286-0.702-0.361-1.057-0.229-0.13 0.048-0.252 0.124-0.357 0.228 0 0-0 0-0 0l-9.708 9.708-9.708-9.708c-0-0-0-0-0-0-0.105-0.104-0.227-0.18-0.357-0.228-0.356-0.133-0.771-0.057-1.057 0.229l-4.586 4.586c-0.286 0.286-0.361 0.702-0.229 1.057 0.049 0.13 0.124 0.252 0.229 0.357 0 0 0 0 0 0l9.708 9.708-9.708 9.708c-0 0-0 0-0 0-0.104 0.105-0.18 0.227-0.229 0.357-0.133 0.355-0.057 0.771 0.229 1.057l4.586 4.586c0.286 0.286 0.702 0.361 1.057 0.229 0.13-0.049 0.252-0.124 0.357-0.229 0-0 0-0 0-0l9.708-9.708 9.708 9.708c0 0 0 0 0 0 0.105 0.105 0.227 0.18 0.357 0.229 0.356 0.133 0.771 0.057 1.057-0.229l4.586-4.586c0.286-0.286 0.362-0.702 0.229-1.057-0.049-0.13-0.124-0.252-0.229-0.357z"></path>
</symbol>
  </defs>
</svg>
